<svg width="48" height="49" viewBox="0 0 48 49" fill="none" xmlns="http://www.w3.org/2000/svg">
<rect y="0.5" width="48" height="48" rx="24" fill="#A4DAF0"/>
<path fill-rule="evenodd" clip-rule="evenodd" d="M36 14.5C37.1046 14.5 38 15.3954 38 16.5L38 22.5C38 23.6046 37.1046 24.5 36 24.5C34.8954 24.5 34 23.6046 34 22.5L34 16.5C34 15.3954 34.8954 14.5 36 14.5Z" fill="#4B3425"/>
<path fill-rule="evenodd" clip-rule="evenodd" d="M12 14.5C13.1046 14.5 14 15.3954 14 16.5L14 22.5C14 23.6046 13.1046 24.5 12 24.5C10.8954 24.5 10 23.6046 10 22.5L10 16.5C10 15.3954 10.8954 14.5 12 14.5Z" fill="#4B3425"/>
<path fill-rule="evenodd" clip-rule="evenodd" d="M10 32.5C10 31.3954 10.8954 30.5 12 30.5H36C37.1046 30.5 38 31.3954 38 32.5C38 33.6046 37.1046 34.5 36 34.5H12C10.8954 34.5 10 33.6046 10 32.5Z" fill="#4B3425"/>
</svg>
