<svg width="48" height="49" viewBox="0 0 48 49" fill="none" xmlns="http://www.w3.org/2000/svg">
<rect y="0.5" width="48" height="48" rx="24" fill="#FE814B"/>
<path fill-rule="evenodd" clip-rule="evenodd" d="M16.695 28.9798C18.7907 27.3716 21.3585 26.5 24.0001 26.5C26.6417 26.5 29.2095 27.3717 31.3052 28.9798C33.401 30.5879 34.9075 32.8426 35.5912 35.3942C35.8771 36.4611 35.2439 37.5578 34.177 37.8437C33.1101 38.1295 32.0134 37.4964 31.7275 36.4295C31.2717 34.7284 30.2673 33.2252 28.8702 32.1532C27.473 31.0811 25.7612 30.5 24.0001 30.5C22.239 30.5 20.5272 31.0811 19.13 32.1532C17.7328 33.2252 16.7285 34.7284 16.2727 36.4294C15.9868 37.4964 14.8901 38.1295 13.8232 37.8437C12.7563 37.5578 12.1231 36.4611 12.409 35.3942C13.0927 32.8426 14.5992 30.5879 16.695 28.9798Z" fill="#702901"/>
<path fill-rule="evenodd" clip-rule="evenodd" d="M12 14.5C13.1046 14.5 14 15.3954 14 16.5V22.5C14 23.6046 13.1046 24.5 12 24.5C10.8954 24.5 10 23.6046 10 22.5V16.5C10 15.3954 10.8954 14.5 12 14.5Z" fill="#702901"/>
<path fill-rule="evenodd" clip-rule="evenodd" d="M36 14.5C37.1046 14.5 38 15.3954 38 16.5V22.5C38 23.6046 37.1046 24.5 36 24.5C34.8954 24.5 34 23.6046 34 22.5V16.5C34 15.3954 34.8954 14.5 36 14.5Z" fill="#702901"/>
</svg>
